<svg width="267" height="37" viewBox="0 0 267 37" fill="none" xmlns="http://www.w3.org/2000/svg">
<path d="M0.8 36.5L8.35 0.799998H18.75C21.0167 0.799998 23 1.06666 24.7 1.6C26.4 2.13333 27.7167 2.98333 28.65 4.15C29.5833 5.31666 30.05 6.85 30.05 8.75C30.05 10.3833 29.7333 11.8167 29.1 13.05C28.5 14.2833 27.6167 15.3167 26.45 16.15C25.3167 16.95 23.9167 17.5333 22.25 17.9V18.1C23.8833 18.5333 25.1833 19.3333 26.15 20.5C27.1167 21.6333 27.6 23.0833 27.6 24.85C27.6 27.55 26.9833 29.7667 25.75 31.5C24.5167 33.2 22.8333 34.4667 20.7 35.3C18.6 36.1 16.2167 36.5 13.55 36.5H0.8ZM13.95 30.25C15.1833 30.25 16.25 30.05 17.15 29.65C18.05 29.25 18.75 28.65 19.25 27.85C19.7833 27.05 20.05 26.0667 20.05 24.9C20.05 23.6333 19.6833 22.6667 18.95 22C18.2167 21.3 17.1 20.95 15.6 20.95H11.55L9.55 30.25H13.95ZM16.45 14.95C17.65 14.95 18.6833 14.8 19.55 14.5C20.45 14.1667 21.1333 13.6667 21.6 13C22.1 12.3 22.35 11.4167 22.35 10.35C22.35 9.25 22 8.41666 21.3 7.85C20.6333 7.28333 19.6 7 18.2 7H14.5L12.8 14.95H16.45ZM40.4059 37C39.1059 37 37.8559 36.6833 36.6559 36.05C35.4892 35.3833 34.5392 34.3333 33.8059 32.9C33.0725 31.4333 32.7059 29.5 32.7059 27.1C32.7059 25.3333 32.8892 23.5667 33.2559 21.8C33.6559 20.0333 34.2059 18.3667 34.9059 16.8C35.6392 15.2333 36.5225 13.85 37.5559 12.65C38.5892 11.4167 39.7559 10.45 41.0559 9.75C42.3892 9.05 43.8225 8.7 45.3559 8.7C46.5225 8.7 47.5225 8.86666 48.3559 9.2C49.2225 9.53333 49.9559 10 50.5559 10.6C51.1892 11.2 51.7059 11.9 52.1059 12.7H52.3059L53.7059 9.2H59.3559L53.5559 36.5H48.0559L48.4059 32.95H48.2059C47.5725 33.75 46.8725 34.45 46.1059 35.05C45.3392 35.65 44.4892 36.1333 43.5559 36.5C42.6225 36.8333 41.5725 37 40.4059 37ZM43.3059 31.05C44.3059 31.05 45.2392 30.65 46.1059 29.85C46.9725 29.05 47.7059 28.0167 48.3059 26.75C48.9392 25.4833 49.3892 24.15 49.6559 22.75C49.7892 22.0833 49.8725 21.4333 49.9059 20.8C49.9725 20.1333 50.0059 19.4167 50.0059 18.65C50.0059 17.4833 49.7059 16.5333 49.1059 15.8C48.5059 15.0333 47.6725 14.65 46.6059 14.65C45.8725 14.65 45.1892 14.8833 44.5559 15.35C43.9225 15.8167 43.3225 16.45 42.7559 17.25C42.2225 18.05 41.7559 18.9667 41.3559 20C40.9892 21.0333 40.6892 22.1333 40.4559 23.3C40.2559 24.4333 40.1559 25.5833 40.1559 26.75C40.1559 28.1833 40.4225 29.2667 40.9559 30C41.5225 30.7 42.3059 31.05 43.3059 31.05ZM61.0934 36.5L66.8934 9.2H72.4934L71.9934 14.25H72.1934C72.8934 13.15 73.66 12.1833 74.4934 11.35C75.36 10.5167 76.31 9.86667 77.3434 9.4C78.3767 8.93333 79.5267 8.7 80.7934 8.7C82.36 8.7 83.66 9.03333 84.6934 9.7C85.76 10.3333 86.5434 11.2333 87.0434 12.4C87.5767 13.5667 87.8434 14.95 87.8434 16.55C87.8434 17.15 87.7934 17.8333 87.6934 18.6C87.5934 19.3333 87.46 20.1167 87.2934 20.95L84.0434 36.5H76.6934L80.0434 20.55C80.1767 19.9833 80.2767 19.4667 80.3434 19C80.41 18.5 80.4434 18.05 80.4434 17.65C80.4434 16.6167 80.21 15.8667 79.7434 15.4C79.31 14.9 78.66 14.65 77.7934 14.65C76.6934 14.65 75.6934 15.1333 74.7934 16.1C73.8934 17.0333 73.11 18.3 72.4434 19.9C71.81 21.5 71.2767 23.2667 70.8434 25.2L68.4434 36.5H61.0934ZM102.719 37C100.852 37 99.1358 36.6667 97.5691 36C96.0358 35.3 94.8191 34.2167 93.9191 32.75C93.0191 31.2833 92.5691 29.35 92.5691 26.95C92.5691 24.9833 92.7691 23.1 93.1691 21.3C93.6025 19.5 94.2025 17.8333 94.9691 16.3C95.7691 14.7667 96.7525 13.4333 97.9191 12.3C99.0858 11.1667 100.436 10.2833 101.969 9.65C103.502 9.01666 105.186 8.7 107.019 8.7C108.652 8.7 110.102 8.85 111.369 9.15C112.669 9.45 113.886 9.88333 115.019 10.45L112.769 16.05C111.902 15.6833 111.036 15.3667 110.169 15.1C109.336 14.8 108.386 14.65 107.319 14.65C106.386 14.65 105.536 14.8667 104.769 15.3C104.002 15.7333 103.319 16.3333 102.719 17.1C102.152 17.8667 101.652 18.75 101.219 19.75C100.819 20.75 100.519 21.8167 100.319 22.95C100.119 24.05 100.019 25.1833 100.019 26.35C100.019 27.3833 100.186 28.25 100.519 28.95C100.852 29.65 101.319 30.1833 101.919 30.55C102.552 30.8833 103.319 31.05 104.219 31.05C105.452 31.05 106.586 30.8667 107.619 30.5C108.686 30.1 109.786 29.6167 110.919 29.05V35.05C109.786 35.65 108.552 36.1333 107.219 36.5C105.919 36.8333 104.419 37 102.719 37ZM124.439 37C123.139 37 121.889 36.6833 120.689 36.05C119.522 35.3833 118.572 34.3333 117.839 32.9C117.106 31.4333 116.739 29.5 116.739 27.1C116.739 25.3333 116.922 23.5667 117.289 21.8C117.689 20.0333 118.239 18.3667 118.939 16.8C119.672 15.2333 120.556 13.85 121.589 12.65C122.622 11.4167 123.789 10.45 125.089 9.75C126.422 9.05 127.856 8.7 129.389 8.7C130.556 8.7 131.556 8.86666 132.389 9.2C133.256 9.53333 133.989 10 134.589 10.6C135.222 11.2 135.739 11.9 136.139 12.7H136.339L137.739 9.2H143.389L137.589 36.5H132.089L132.439 32.95H132.239C131.606 33.75 130.906 34.45 130.139 35.05C129.372 35.65 128.522 36.1333 127.589 36.5C126.656 36.8333 125.606 37 124.439 37ZM127.339 31.05C128.339 31.05 129.272 30.65 130.139 29.85C131.006 29.05 131.739 28.0167 132.339 26.75C132.972 25.4833 133.422 24.15 133.689 22.75C133.822 22.0833 133.906 21.4333 133.939 20.8C134.006 20.1333 134.039 19.4167 134.039 18.65C134.039 17.4833 133.739 16.5333 133.139 15.8C132.539 15.0333 131.706 14.65 130.639 14.65C129.906 14.65 129.222 14.8833 128.589 15.35C127.956 15.8167 127.356 16.45 126.789 17.25C126.256 18.05 125.789 18.9667 125.389 20C125.022 21.0333 124.722 22.1333 124.489 23.3C124.289 24.4333 124.189 25.5833 124.189 26.75C124.189 28.1833 124.456 29.2667 124.989 30C125.556 30.7 126.339 31.05 127.339 31.05Z" fill="white"/>
<path d="M145.527 36.5L153.077 0.799998H161.827C165.393 0.799998 168.21 1.56666 170.277 3.1C172.377 4.63333 173.427 7.13333 173.427 10.6C173.427 12.4667 173.077 14.1167 172.377 15.55C171.71 16.9833 170.777 18.1833 169.577 19.15C168.41 20.0833 167.077 20.8167 165.577 21.35L171.927 36.5H163.827L158.777 22.8H155.877L152.977 36.5H145.527ZM159.077 16.65C160.143 16.65 161.093 16.5333 161.927 16.3C162.76 16.0667 163.46 15.7167 164.027 15.25C164.627 14.7833 165.077 14.2 165.377 13.5C165.677 12.7667 165.827 11.9333 165.827 11C165.827 9.66667 165.443 8.66667 164.677 8C163.91 7.33333 162.693 7 161.027 7H159.227L157.177 16.65H159.077ZM187.345 37C185.312 37 183.495 36.5833 181.895 35.75C180.329 34.8833 179.095 33.6667 178.195 32.1C177.329 30.5333 176.895 28.6667 176.895 26.5C176.895 24.5667 177.079 22.7167 177.445 20.95C177.845 19.1833 178.429 17.5667 179.195 16.1C179.962 14.6 180.929 13.3 182.095 12.2C183.262 11.1 184.612 10.25 186.145 9.65C187.712 9.01666 189.462 8.7 191.395 8.7C193.529 8.7 195.362 9.13333 196.895 10C198.429 10.8333 199.612 12.0667 200.445 13.7C201.312 15.3 201.745 17.2333 201.745 19.5C201.745 21.3333 201.562 23.1167 201.195 24.85C200.829 26.5833 200.262 28.1833 199.495 29.65C198.762 31.1167 197.829 32.4 196.695 33.5C195.562 34.6 194.212 35.4667 192.645 36.1C191.079 36.7 189.312 37 187.345 37ZM187.945 31C188.745 31 189.479 30.8 190.145 30.4C190.812 29.9667 191.412 29.3833 191.945 28.65C192.479 27.9167 192.912 27.0667 193.245 26.1C193.612 25.1333 193.879 24.0833 194.045 22.95C194.245 21.8167 194.345 20.6667 194.345 19.5C194.345 18.5667 194.229 17.75 193.995 17.05C193.795 16.3167 193.429 15.75 192.895 15.35C192.395 14.9167 191.712 14.7 190.845 14.7C189.945 14.7 189.145 14.95 188.445 15.45C187.745 15.95 187.129 16.6167 186.595 17.45C186.095 18.25 185.662 19.1667 185.295 20.2C184.962 21.2333 184.712 22.3 184.545 23.4C184.379 24.4667 184.295 25.5 184.295 26.5C184.295 27.9667 184.595 29.0833 185.195 29.85C185.795 30.6167 186.712 31 187.945 31ZM213.943 37C211.81 37 210.093 36.55 208.793 35.65C207.493 34.7167 206.843 33.0667 206.843 30.7C206.843 30.3 206.86 29.8667 206.893 29.4C206.96 28.9333 207.043 28.45 207.143 27.95L209.943 14.8H206.243L206.943 11.2L211.743 9.15L214.943 3.4H219.693L218.493 9.2H225.393L224.193 14.8H217.293L214.493 27.95C214.46 28.1833 214.427 28.4167 214.393 28.65C214.36 28.8833 214.343 29.0833 214.343 29.25C214.343 29.8833 214.543 30.35 214.943 30.65C215.343 30.9167 215.86 31.05 216.493 31.05C217.16 31.05 217.793 30.9833 218.393 30.85C219.027 30.6833 219.71 30.4667 220.443 30.2V35.7C219.677 36.0667 218.743 36.3667 217.643 36.6C216.543 36.8667 215.31 37 213.943 37ZM234.351 37C233.051 37 231.801 36.6833 230.601 36.05C229.435 35.3833 228.485 34.3333 227.751 32.9C227.018 31.4333 226.651 29.5 226.651 27.1C226.651 25.3333 226.835 23.5667 227.201 21.8C227.601 20.0333 228.151 18.3667 228.851 16.8C229.585 15.2333 230.468 13.85 231.501 12.65C232.535 11.4167 233.701 10.45 235.001 9.75C236.335 9.05 237.768 8.7 239.301 8.7C240.468 8.7 241.468 8.86666 242.301 9.2C243.168 9.53333 243.901 10 244.501 10.6C245.135 11.2 245.651 11.9 246.051 12.7H246.251L247.651 9.2H253.301L247.501 36.5H242.001L242.351 32.95H242.151C241.518 33.75 240.818 34.45 240.051 35.05C239.285 35.65 238.435 36.1333 237.501 36.5C236.568 36.8333 235.518 37 234.351 37ZM237.251 31.05C238.251 31.05 239.185 30.65 240.051 29.85C240.918 29.05 241.651 28.0167 242.251 26.75C242.885 25.4833 243.335 24.15 243.601 22.75C243.735 22.0833 243.818 21.4333 243.851 20.8C243.918 20.1333 243.951 19.4167 243.951 18.65C243.951 17.4833 243.651 16.5333 243.051 15.8C242.451 15.0333 241.618 14.65 240.551 14.65C239.818 14.65 239.135 14.8833 238.501 15.35C237.868 15.8167 237.268 16.45 236.701 17.25C236.168 18.05 235.701 18.9667 235.301 20C234.935 21.0333 234.635 22.1333 234.401 23.3C234.201 24.4333 234.101 25.5833 234.101 26.75C234.101 28.1833 234.368 29.2667 234.901 30C235.468 30.7 236.251 31.05 237.251 31.05ZM260.939 36.66C260.117 36.66 259.355 36.516 258.651 36.228C257.947 35.9293 257.328 35.5187 256.795 34.996C256.272 34.4627 255.861 33.844 255.563 33.14C255.275 32.436 255.131 31.6733 255.131 30.852C255.131 30.0307 255.275 29.268 255.563 28.564C255.861 27.86 256.272 27.2467 256.795 26.724C257.328 26.2013 257.947 25.796 258.651 25.508C259.355 25.2093 260.117 25.06 260.939 25.06C261.76 25.06 262.523 25.2093 263.227 25.508C263.931 25.796 264.544 26.2013 265.067 26.724C265.589 27.2467 265.995 27.86 266.283 28.564C266.581 29.268 266.731 30.0307 266.731 30.852C266.731 31.6733 266.581 32.436 266.283 33.14C265.995 33.844 265.589 34.4627 265.067 34.996C264.544 35.5187 263.931 35.9293 263.227 36.228C262.523 36.516 261.76 36.66 260.939 36.66ZM260.939 35.812C261.643 35.812 262.293 35.6893 262.891 35.444C263.488 35.188 264.005 34.836 264.443 34.388C264.88 33.94 265.221 33.4173 265.467 32.82C265.712 32.212 265.835 31.556 265.835 30.852C265.835 30.148 265.712 29.4973 265.467 28.9C265.221 28.292 264.88 27.7693 264.443 27.332C264.005 26.884 263.488 26.5373 262.891 26.292C262.293 26.036 261.643 25.908 260.939 25.908C260.235 25.908 259.584 26.036 258.987 26.292C258.389 26.5373 257.867 26.884 257.419 27.332C256.981 27.7693 256.64 28.292 256.395 28.9C256.149 29.4973 256.027 30.148 256.027 30.852C256.027 31.556 256.149 32.212 256.395 32.82C256.64 33.4173 256.981 33.94 257.419 34.388C257.867 34.836 258.389 35.188 258.987 35.444C259.584 35.6893 260.235 35.812 260.939 35.812ZM259.227 34.324C258.715 34.324 258.459 34.0573 258.459 33.524V28.372C258.459 28.084 258.533 27.86 258.683 27.7C258.843 27.54 259.072 27.46 259.371 27.46H261.387C262.144 27.46 262.72 27.6467 263.115 28.02C263.52 28.3827 263.723 28.8627 263.723 29.46C263.723 30.0787 263.525 30.5533 263.131 30.884C262.736 31.204 262.181 31.364 261.467 31.364L261.819 31.188C262.16 31.188 262.432 31.268 262.635 31.428C262.848 31.5773 263.029 31.8813 263.179 32.34L263.531 33.396C263.637 33.7053 263.605 33.94 263.435 34.1C263.275 34.2493 263.056 34.324 262.779 34.324C262.597 34.324 262.448 34.2707 262.331 34.164C262.213 34.0467 262.128 33.8973 262.075 33.716L261.611 32.244C261.536 31.9987 261.419 31.8387 261.259 31.764C261.099 31.6787 260.912 31.636 260.699 31.636H259.739L259.995 31.46V33.524C259.995 34.0573 259.739 34.324 259.227 34.324ZM259.979 30.484H261.179C261.541 30.484 261.813 30.4093 261.995 30.26C262.176 30.1107 262.267 29.8707 262.267 29.54C262.267 29.22 262.176 28.9853 261.995 28.836C261.813 28.6867 261.541 28.612 261.179 28.612H259.979V30.484Z" fill="#FFE146"/>
</svg>
